  0
SECTION
  2
HEADER
  9
$ACADVER
  1
AC1009
  9
$INSBASE
 10
0
 20
0
 30
0
  9
$EXTMIN
 10
0
 20
0
  9
$EXTMAX
 10
74.25
 20
52.5
  9
$LIMMIN
 10
0
 20
0
  9
$LIMMAX
 10
74.25
 20
52.5
  9
$LTSCALE
 40
0.25
  0
ENDSEC
  0
SECTION
  2
TABLES
  0
TABLE
  2
LTYPE
 70
     9
  0
LTYPE
  2
CONTINUOUS
 70
    64
  3
実線
 72
    65
 73
     0
 40
0.0
  0
LTYPE
  2
DASHED1
 70
    64
  3
--  --  --  --  --  --  --  --  
 72
    65
 73
     2
 40
2.5
 49
1.25
 49
-1.25
  0
LTYPE
  2
DASHED2
 70
    64
  3
----    ----    ----    ----    
 72
    65
 73
     2
 40
5.0
 49
2.5
 49
-2.5
  0
LTYPE
  2
DASHED3
 70
    64
  3
------  ------  ------  ------  
 72
    65
 73
     2
 40
5.0
 49
3.75
 49
-1.25
  0
LTYPE
  2
CENTER1
 70
    64
  3
----- - ----- - ----- - ----- - 
 72
    65
 73
     4
 40
10.0
 49
6.25
 49
-1.25
 49
1.25
 49
-1.25
  0
LTYPE
  2
CENTER2
 70
    64
  3
----------  --  ----------  --  
 72
    65
 73
     4
 40
20.0
 49
12.5
 49
-2.5
 49
2.5
 49
-2.5
  0
LTYPE
  2
PHANTOM1
 70
    64
  3
--- - - --- - - --- - - --- - - 
 72
    65
 73
     6
 40
10.0
 49
3.25
 49
-1.25
 49
1.25
 49
-1.25
 49
1.25
 49
-1.25
  0
LTYPE
  2
PHANTOM2
 70
    64
  3
--------  -  -  --------  -  -  
 72
    65
 73
     6
 40
20.0
 49
10.0
 49
-2.5
 49
1.25
 49
-2.5
 49
1.25
 49
-2.5
  0
LTYPE
  2
DOT
 70
    64
  3
-   -   -   -   -   -   -   -   
 72
    65
 73
     2
 40
2.5
 49
0.625
 49
-1.875
  0
LTYPE
  2
DUMMY
 70
    64
  3
ダミー
 72
    65
 73
     0
 40
0.0
  0
LTYPE
  2
RAND1
 70
    64
  3
ランダム線1
 72
    65
 73
     4
 40
10.0
 49
1.0
 49
-2.0
 49
3.0
 49
-4.0
  0
LTYPE
  2
RAND2
 70
    64
  3
ランダム線2
 72
    65
 73
     4
 40
14.0
 49
2.0
 49
-3.0
 49
4.0
 49
-5.0
  0
LTYPE
  2
RAND3
 70
    64
  3
ランダム線3
 72
    65
 73
     4
 40
18.0
 49
3.0
 49
-4.0
 49
5.0
 49
-6.0
  0
LTYPE
  2
RAND4
 70
    64
  3
ランダム線4
 72
    65
 73
     4
 40
22.0
 49
4.0
 49
-5.0
 49
6.0
 49
-7.0
  0
LTYPE
  2
RAND5
 70
    64
  3
ランダム線5
 72
    65
 73
     4
 40
26.0
 49
5.0
 49
-6.0
 49
7.0
 49
-8.0
  0
LTYPE
  2
LONG1
 70
    64
  3
----------  --  ----------  --  
 72
    65
 73
     4
 40
40.0
 49
32.5
 49
-2.5
 49
2.5
 49
-2.5
  0
LTYPE
  2
LONG2
 70
    64
  3
--------  -  -  --------  -  -  
 72
    65
 73
     6
 40
40.0
 49
30.0
 49
-2.5
 49
1.25
 49
-2.5
 49
1.25
 49
-2.5
  0
LTYPE
  2
LONG3
 70
    64
  3
+++++++++++++++..+++++++++++++++
 72
    65
 73
     2
 40
40.0
 49
37.5
 49
-2.5
  0
LTYPE
  2
LONG4
 70
    64
  3
+++++++++++++++..+++++++++++++++
 72
    65
 73
     2
 40
80.0
 49
75.0
 49
-5.0
  0
LTYPE
  2
LONG5
 70
    64
  3
----------  --  ----------  --  
 72
    65
 73
     4
 40
60.0
 49
37.5
 49
-7.5
 49
7.5
 49
-7.5
  0
LTYPE
  2
dashed
 70
   64
  3
-------   -------------   ------
 72
   65
 73
    2
 40
7.5
 49
6
 49
-1.5
  0
LTYPE
  2
dashed_spaced
 70
   64
  3
----        --------        ----
 72
   65
 73
    2
 40
12
 49
6
 49
-6
  0
LTYPE
  2
long_dashed_dotted
 70
   64
  3
------------- --- --------------
 72
   65
 73
    4
 40
15.25
 49
12
 49
-1.5
 49
0.25
 49
-1.5
  0
LTYPE
  2
long_dashed_double-dotted
 70
   64
  3
----------- --- --- ------------
 72
   65
 73
    6
 40
17
 49
12
 49
-1.5
 49
0.25
 49
-1.5
 49
0.25
 49
-1.5
  0
LTYPE
  2
long_dashed_triplicate-dotted
 70
   64
  3
--------- --- --- --- ----------
 72
   65
 73
    8
 40
18.75
 49
12
 49
-1.5
 49
0.25
 49
-1.5
 49
0.25
 49
-1.5
 49
0.25
 49
-1.5
  0
LTYPE
  2
dotted
 70
   64
  3
   -       -       -       -    
 72
   65
 73
    2
 40
1.75
 49
0.25
 49
-1.5
  0
LTYPE
  2
chain
 70
   64
  3
-------------- -- --------------
 72
   65
 73
    4
 40
18.5
 49
12
 49
-1.5
 49
3.5
 49
-1.5
  0
LTYPE
  2
chain_double_dash
 70
   64
  3
------------ -- -- -------------
 72
   65
 73
    6
 40
23.5
 49
12
 49
-1.5
 49
3.5
 49
-1.5
 49
3.5
 49
-1.5
  0
LTYPE
  2
dashed_dotted
 70
   64
  3
-----------     -     ----------
 72
   65
 73
    4
 40
9.25
 49
6
 49
-1.5
 49
0.25
 49
-1.5
  0
LTYPE
  2
double-dashed_dotted
 70
   64
  3
------   -----------   -   -----
 72
   65
 73
    6
 40
16.75
 49
6
 49
-1.5
 49
6
 49
-1.5
 49
0.25
 49
-1.5
  0
LTYPE
  2
dashed_double-dotted
 70
   64
  3
---------    -    -    ---------
 72
   65
 73
    6
 40
11
 49
6
 49
-1.5
 49
0.25
 49
-1.5
 49
0.25
 49
-1.5
  0
LTYPE
  2
double-dashed_double-dotted
 70
   64
  3
-----   ---------   -   -   ----
 72
   65
 73
    8
 40
18.5
 49
6
 49
-1.5
 49
6
 49
-1.5
 49
0.25
 49
-1.5
 49
0.25
 49
-1.5
  0
LTYPE
  2
dashed_triplicate-dotted
 70
   64
  3
-------    -    -    -    ------
 72
   65
 73
    8
 40
12.75
 49
6
 49
-1.5
 49
0.25
 49
-1.5
 49
0.25
 49
-1.5
 49
0.25
 49
-1.5
  0
LTYPE
  2
double-dashed_triplicate-dotted
 70
   64
  3
-----  ---------  -  -  -  -----
 72
   65
 73
   10
 40
20.25
 49
6
 49
-1.5
 49
6
 49
-1.5
 49
0.25
 49
-1.5
 49
0.25
 49
-1.5
 49
0.25
 49
-1.5
  0
LTYPE
  2
undefined
 70
   64
  3
--------------------------------
 72
   65
 73
    0
 40
0
  0
LTYPE
  2
_
 70
   64
  3
                                
 72
   65
 73
    0
 40
0
  0
LTYPE
  2
__18
 70
   64
  3
                                
 72
   65
 73
    0
 40
0
  0
LTYPE
  2
__19
 70
   64
  3
                                
 72
   65
 73
    0
 40
0
  0
LTYPE
  2
__20
 70
   64
  3
                                
 72
   65
 73
    0
 40
0
  0
LTYPE
  2
__21
 70
   64
  3
                                
 72
   65
 73
    0
 40
0
  0
LTYPE
  2
__22
 70
   64
  3
                                
 72
   65
 73
    0
 40
0
  0
LTYPE
  2
__23
 70
   64
  3
                                
 72
   65
 73
    0
 40
0
  0
LTYPE
  2
__24
 70
   64
  3
                                
 72
   65
 73
    0
 40
0
  0
LTYPE
  2
__25
 70
   64
  3
                                
 72
   65
 73
    0
 40
0
  0
LTYPE
  2
__26
 70
   64
  3
                                
 72
   65
 73
    0
 40
0
  0
LTYPE
  2
__27
 70
   64
  3
                                
 72
   65
 73
    0
 40
0
  0
LTYPE
  2
__28
 70
   64
  3
                                
 72
   65
 73
    0
 40
0
  0
LTYPE
  2
__29
 70
   64
  3
                                
 72
   65
 73
    0
 40
0
  0
LTYPE
  2
__30
 70
   64
  3
                                
 72
   65
 73
    0
 40
0
  0
LTYPE
  2
__31
 70
   64
  3
                                
 72
   65
 73
    0
 40
0
  0
LTYPE
  2
__32
 70
   64
  3
                                
 72
   65
 73
    0
 40
0
  0
ENDTAB
  0
TABLE
  2
STYLE
  5
3
100
AcDbSymbolTable
 70
     1
  0
STYLE
  5
10
100
AcDbSymbolTableRecord
100
AcDbTextStyleTableRecord
  2
STANDARD
 70
     0
 40
0.0
 41
1.0
 50
0.0
 71
     0
 42
0.2
  3
txt
  4
bigfont.shx
  0
STYLE
  5
26
100
AcDbSymbolTableRecord
100
AcDbTextStyleTableRecord
  2
TATEGAKI
 70
    68
 40
0.0
 41
1.0
 50
0.0
 71
     0
 42
1.0
  3
txt
  4
bigfont.shx
  0
ENDTAB
  0
TABLE
  2
LAYER
 70
    5
  0
LAYER
  2
_0-0_
 70
   64
 62
    7
  6
CONTINUOUS
  0
LAYER
  2
_0-1_
 70
   64
 62
    7
  6
CONTINUOUS
  0
LAYER
  2
_0-2_
 70
   64
 62
    7
  6
CONTINUOUS
  0
LAYER
  2
_0-3_
 70
   64
 62
    7
  6
CONTINUOUS
  0
LAYER
  2
ADD_LINE
 70
   64
 62
    7
  6
CONTINUOUS
  0
ENDTAB
  0
ENDSEC
  0
SECTION
  2
BLOCKS
  0
ENDSEC
  0
SECTION
  2
ENTITIES
  0
LINE
  8
_0-1_
  6
CONTINUOUS
 62
    7
 10
31.470486557188856
 20
26.615317952948281
 11
31.470486557188856
 21
35.940317952948284
  0
LINE
  8
_0-0_
  6
CONTINUOUS
 62
    7
 10
31.470486557188856
 20
26.615317952948281
 11
39.470486557188856
 21
26.615317952948281
  0
LINE
  8
_0-0_
  6
CONTINUOUS
 62
    7
 10
31.470486557188856
 20
26.615317952948281
 11
31.470486557188856
 21
32.940317952948284
  0
LINE
  8
_0-0_
  6
CONTINUOUS
 62
    7
 10
39.470486557188856
 20
26.615317952948281
 11
39.470486557188856
 21
32.940317952948284
  0
LINE
  8
_0-0_
  6
CONTINUOUS
 62
    7
 10
31.470486557188856
 20
32.940317952948284
 11
35.470486557188856
 21
32.940317952948284
  0
LINE
  8
_0-0_
  6
CONTINUOUS
 62
    7
 10
35.470486557188856
 20
32.940317952948284
 11
39.470486557188856
 21
32.940317952948284
  0
LINE
  8
_0-0_
  6
CONTINUOUS
 62
    7
 10
35.470486557188856
 20
32.940317952948284
 11
35.470486557188856
 21
30.115317952948281
  0
CIRCLE
  8
_0-0_
  6
CONTINUOUS
 62
    7
 10
35.470486557188856
 20
30.115317952948281
 40
2.3249999999999997
  0
LINE
  8
_0-0_
  6
CONTINUOUS
 62
    7
 10
35.470486557188856
 20
32.940317952948284
 11
35.470486557188856
 21
33.440317952948284
  0
LINE
  8
_0-0_
  6
CONTINUOUS
 62
    7
 10
35.470486557188856
 20
33.440317952948284
 11
35.470486557188856
 21
35.940317952948284
  0
CIRCLE
  8
_0-0_
  6
CONTINUOUS
 62
    7
 10
35.470486557188856
 20
35.940317952948284
 40
2.5
  0
CIRCLE
  8
_0-0_
  6
CONTINUOUS
 62
    7
 10
35.470486557188856
 20
35.940317952948284
 40
4
  0
LINE
  8
_0-0_
  6
CONTINUOUS
 62
    7
 10
35.470486557188856
 20
35.940317952948284
 11
31.470486557188856
 21
35.940317952948284
  0
LINE
  8
_0-0_
  6
CONTINUOUS
 62
    7
 10
35.470486557188856
 20
35.940317952948284
 11
39.470486557188856
 21
35.940317952948284
  0
LINE
  8
_0-0_
  6
CONTINUOUS
 62
    7
 10
31.470486557188856
 20
32.940317952948284
 11
31.470486557188856
 21
35.940317952948284
  0
LINE
  8
_0-0_
  6
CONTINUOUS
 62
    7
 10
39.470486557188856
 20
35.940317952948284
 11
39.470486557188856
 21
32.940317952948284
  0
LINE
  8
_0-0_
  6
CONTINUOUS
 62
    7
 10
31.470486557188856
 20
26.615317952948281
 11
35.470486557188856
 21
26.615317952948281
  0
LINE
  8
_0-0_
  6
CONTINUOUS
 62
    7
 10
35.470486557188856
 20
26.615317952948281
 11
36.470486557188856
 21
26.615317952948281
  0
LINE
  8
_0-0_
  6
CONTINUOUS
 62
    7
 10
35.470486557188856
 20
26.615317952948281
 11
34.470486557188856
 21
26.615317952948281
  0
LINE
  8
_0-0_
  6
CONTINUOUS
 62
    7
 10
36.470486557188856
 20
26.615317952948281
 11
36.470486557188856
 21
25.115317952948281
  0
LINE
  8
_0-0_
  6
CONTINUOUS
 62
    7
 10
34.470486557188856
 20
26.615317952948281
 11
34.470486557188856
 21
25.115317952948281
  0
LINE
  8
_0-0_
  6
CONTINUOUS
 62
    7
 10
34.470486557188856
 20
25.115317952948281
 11
36.470486557188856
 21
25.115317952948281
  0
LINE
  8
_0-0_
  6
CONTINUOUS
 62
    7
 10
34.470486557188856
 20
26.615317952948281
 11
33.470486557188856
 21
26.615317952948281
  0
LINE
  8
_0-0_
  6
CONTINUOUS
 62
    7
 10
36.470486557188856
 20
26.615317952948281
 11
37.470486557188856
 21
26.615317952948281
  0
CIRCLE
  8
_0-0_
  6
CONTINUOUS
 62
    7
 10
33.470486557188856
 20
26.615317952948281
 40
1
  0
CIRCLE
  8
_0-0_
  6
CONTINUOUS
 62
    7
 10
37.470486557188856
 20
26.615317952948281
 40
1
  0
LINE
  8
_0-0_
  6
CONTINUOUS
 62
    7
 10
39.470486557188856
 20
26.615317952948281
 11
43.470486557188856
 21
26.615317952948281
  0
LINE
  8
_0-0_
  6
CONTINUOUS
 62
    7
 10
43.470486557188856
 20
26.615317952948281
 11
51.470486557188856
 21
26.615317952948281
  0
LINE
  8
_0-0_
  6
CONTINUOUS
 62
    7
 10
43.470486557188856
 20
26.615317952948281
 11
43.470486557188856
 21
32.940317952948284
  0
LINE
  8
_0-0_
  6
CONTINUOUS
 62
    7
 10
51.470486557188856
 20
26.615317952948281
 11
51.470486557188856
 21
32.940317952948284
  0
LINE
  8
_0-0_
  6
CONTINUOUS
 62
    7
 10
43.470486557188856
 20
32.940317952948284
 11
47.470486557188856
 21
32.940317952948284
  0
LINE
  8
_0-0_
  6
CONTINUOUS
 62
    7
 10
47.470486557188856
 20
32.940317952948284
 11
51.470486557188856
 21
32.940317952948284
  0
LINE
  8
_0-0_
  6
CONTINUOUS
 62
    7
 10
47.470486557188856
 20
32.940317952948284
 11
47.470486557188856
 21
30.115317952948281
  0
CIRCLE
  8
_0-0_
  6
CONTINUOUS
 62
    7
 10
47.470486557188856
 20
30.115317952948281
 40
2.3249999999999997
  0
LINE
  8
_0-0_
  6
CONTINUOUS
 62
    7
 10
47.470486557188856
 20
32.940317952948284
 11
47.470486557188856
 21
33.440317952948284
  0
LINE
  8
_0-0_
  6
CONTINUOUS
 62
    7
 10
47.470486557188856
 20
33.440317952948284
 11
47.470486557188856
 21
35.940317952948284
  0
CIRCLE
  8
_0-0_
  6
CONTINUOUS
 62
    7
 10
47.470486557188856
 20
35.940317952948284
 40
2.5
  0
CIRCLE
  8
_0-0_
  6
CONTINUOUS
 62
    7
 10
47.470486557188856
 20
35.940317952948284
 40
4
  0
LINE
  8
_0-0_
  6
CONTINUOUS
 62
    7
 10
47.470486557188856
 20
35.940317952948284
 11
43.470486557188856
 21
35.940317952948284
  0
LINE
  8
_0-0_
  6
CONTINUOUS
 62
    7
 10
47.470486557188856
 20
35.940317952948284
 11
51.470486557188856
 21
35.940317952948284
  0
LINE
  8
_0-0_
  6
CONTINUOUS
 62
    7
 10
43.470486557188856
 20
32.940317952948284
 11
43.470486557188856
 21
35.940317952948284
  0
LINE
  8
_0-0_
  6
CONTINUOUS
 62
    7
 10
51.470486557188856
 20
35.940317952948284
 11
51.470486557188856
 21
32.940317952948284
  0
LINE
  8
_0-0_
  6
CONTINUOUS
 62
    7
 10
43.470486557188856
 20
26.615317952948281
 11
47.470486557188856
 21
26.615317952948281
  0
LINE
  8
_0-0_
  6
CONTINUOUS
 62
    7
 10
47.470486557188856
 20
26.615317952948281
 11
48.470486557188856
 21
26.615317952948281
  0
LINE
  8
_0-0_
  6
CONTINUOUS
 62
    7
 10
47.470486557188856
 20
26.615317952948281
 11
46.470486557188856
 21
26.615317952948281
  0
LINE
  8
_0-0_
  6
CONTINUOUS
 62
    7
 10
48.470486557188856
 20
26.615317952948281
 11
48.470486557188856
 21
25.115317952948281
  0
LINE
  8
_0-0_
  6
CONTINUOUS
 62
    7
 10
46.470486557188856
 20
26.615317952948281
 11
46.470486557188856
 21
25.115317952948281
  0
LINE
  8
_0-0_
  6
CONTINUOUS
 62
    7
 10
46.470486557188856
 20
25.115317952948281
 11
48.470486557188856
 21
25.115317952948281
  0
LINE
  8
_0-0_
  6
CONTINUOUS
 62
    7
 10
46.470486557188856
 20
26.615317952948281
 11
45.470486557188856
 21
26.615317952948281
  0
LINE
  8
_0-0_
  6
CONTINUOUS
 62
    7
 10
48.470486557188856
 20
26.615317952948281
 11
49.470486557188856
 21
26.615317952948281
  0
CIRCLE
  8
_0-0_
  6
CONTINUOUS
 62
    7
 10
45.470486557188856
 20
26.615317952948281
 40
1
  0
CIRCLE
  8
_0-0_
  6
CONTINUOUS
 62
    7
 10
49.470486557188856
 20
26.615317952948281
 40
1
  0
LINE
  8
_0-0_
  6
CONTINUOUS
 62
    7
 10
51.470486557188856
 20
26.615317952948281
 11
55.470486557188856
 21
26.615317952948281
  0
LINE
  8
_0-0_
  6
CONTINUOUS
 62
    7
 10
55.470486557188856
 20
26.615317952948281
 11
63.470486557188856
 21
26.615317952948281
  0
LINE
  8
_0-0_
  6
CONTINUOUS
 62
    7
 10
55.470486557188856
 20
26.615317952948281
 11
55.470486557188856
 21
32.940317952948284
  0
LINE
  8
_0-0_
  6
CONTINUOUS
 62
    7
 10
63.470486557188856
 20
26.615317952948281
 11
63.470486557188856
 21
32.940317952948284
  0
LINE
  8
_0-0_
  6
CONTINUOUS
 62
    7
 10
55.470486557188856
 20
32.940317952948284
 11
59.470486557188856
 21
32.940317952948284
  0
LINE
  8
_0-0_
  6
CONTINUOUS
 62
    7
 10
59.470486557188856
 20
32.940317952948284
 11
63.470486557188856
 21
32.940317952948284
  0
LINE
  8
_0-0_
  6
CONTINUOUS
 62
    7
 10
59.470486557188856
 20
32.940317952948284
 11
59.470486557188856
 21
30.115317952948281
  0
CIRCLE
  8
_0-0_
  6
CONTINUOUS
 62
    7
 10
59.470486557188856
 20
30.115317952948281
 40
2.3249999999999997
  0
LINE
  8
_0-0_
  6
CONTINUOUS
 62
    7
 10
59.470486557188856
 20
32.940317952948284
 11
59.470486557188856
 21
33.440317952948284
  0
LINE
  8
_0-0_
  6
CONTINUOUS
 62
    7
 10
59.470486557188856
 20
33.440317952948284
 11
59.470486557188856
 21
35.940317952948284
  0
CIRCLE
  8
_0-0_
  6
CONTINUOUS
 62
    7
 10
59.470486557188856
 20
35.940317952948284
 40
2.5
  0
CIRCLE
  8
_0-0_
  6
CONTINUOUS
 62
    7
 10
59.470486557188856
 20
35.940317952948284
 40
4
  0
LINE
  8
_0-0_
  6
CONTINUOUS
 62
    7
 10
59.470486557188856
 20
35.940317952948284
 11
55.470486557188856
 21
35.940317952948284
  0
LINE
  8
_0-0_
  6
CONTINUOUS
 62
    7
 10
59.470486557188856
 20
35.940317952948284
 11
63.470486557188856
 21
35.940317952948284
  0
LINE
  8
_0-0_
  6
CONTINUOUS
 62
    7
 10
55.470486557188856
 20
32.940317952948284
 11
55.470486557188856
 21
35.940317952948284
  0
LINE
  8
_0-0_
  6
CONTINUOUS
 62
    7
 10
63.470486557188856
 20
35.940317952948284
 11
63.470486557188856
 21
32.940317952948284
  0
LINE
  8
_0-0_
  6
CONTINUOUS
 62
    7
 10
55.470486557188856
 20
26.615317952948281
 11
59.470486557188856
 21
26.615317952948281
  0
LINE
  8
_0-0_
  6
CONTINUOUS
 62
    7
 10
59.470486557188856
 20
26.615317952948281
 11
60.470486557188856
 21
26.615317952948281
  0
LINE
  8
_0-0_
  6
CONTINUOUS
 62
    7
 10
59.470486557188856
 20
26.615317952948281
 11
58.470486557188856
 21
26.615317952948281
  0
LINE
  8
_0-0_
  6
CONTINUOUS
 62
    7
 10
60.470486557188856
 20
26.615317952948281
 11
60.470486557188856
 21
25.115317952948281
  0
LINE
  8
_0-0_
  6
CONTINUOUS
 62
    7
 10
58.470486557188856
 20
26.615317952948281
 11
58.470486557188856
 21
25.115317952948281
  0
LINE
  8
_0-0_
  6
CONTINUOUS
 62
    7
 10
58.470486557188856
 20
25.115317952948281
 11
60.470486557188856
 21
25.115317952948281
  0
LINE
  8
_0-0_
  6
CONTINUOUS
 62
    7
 10
58.470486557188856
 20
26.615317952948281
 11
57.470486557188856
 21
26.615317952948281
  0
LINE
  8
_0-0_
  6
CONTINUOUS
 62
    7
 10
60.470486557188856
 20
26.615317952948281
 11
61.470486557188856
 21
26.615317952948281
  0
CIRCLE
  8
_0-0_
  6
CONTINUOUS
 62
    7
 10
57.470486557188856
 20
26.615317952948281
 40
1
  0
CIRCLE
  8
_0-0_
  6
CONTINUOUS
 62
    7
 10
61.470486557188856
 20
26.615317952948281
 40
1
  0
LINE
  8
_0-0_
  6
CONTINUOUS
 62
    7
 10
63.470486557188856
 20
26.615317952948281
 11
67.470486557188849
 21
26.615317952948281
  0
LINE
  8
_0-0_
  6
CONTINUOUS
 62
    7
 10
67.470486557188849
 20
26.615317952948281
 11
75.470486557188849
 21
26.615317952948281
  0
LINE
  8
_0-0_
  6
CONTINUOUS
 62
    7
 10
67.470486557188849
 20
26.615317952948281
 11
67.470486557188849
 21
32.940317952948284
  0
LINE
  8
_0-0_
  6
CONTINUOUS
 62
    7
 10
75.470486557188849
 20
26.615317952948281
 11
75.470486557188849
 21
32.940317952948284
  0
LINE
  8
_0-0_
  6
CONTINUOUS
 62
    7
 10
67.470486557188849
 20
32.940317952948284
 11
71.470486557188849
 21
32.940317952948284
  0
LINE
  8
_0-0_
  6
CONTINUOUS
 62
    7
 10
71.470486557188849
 20
32.940317952948284
 11
75.470486557188849
 21
32.940317952948284
  0
LINE
  8
_0-0_
  6
CONTINUOUS
 62
    7
 10
71.470486557188849
 20
32.940317952948284
 11
71.470486557188849
 21
30.115317952948281
  0
CIRCLE
  8
_0-0_
  6
CONTINUOUS
 62
    7
 10
71.470486557188849
 20
30.115317952948281
 40
2.3249999999999997
  0
LINE
  8
_0-0_
  6
CONTINUOUS
 62
    7
 10
71.470486557188849
 20
32.940317952948284
 11
71.470486557188849
 21
33.440317952948284
  0
LINE
  8
_0-0_
  6
CONTINUOUS
 62
    7
 10
71.470486557188849
 20
33.440317952948284
 11
71.470486557188849
 21
35.940317952948284
  0
CIRCLE
  8
_0-0_
  6
CONTINUOUS
 62
    7
 10
71.470486557188849
 20
35.940317952948284
 40
2.5
  0
CIRCLE
  8
_0-0_
  6
CONTINUOUS
 62
    7
 10
71.470486557188849
 20
35.940317952948284
 40
4
  0
LINE
  8
_0-0_
  6
CONTINUOUS
 62
    7
 10
71.470486557188849
 20
35.940317952948284
 11
67.470486557188849
 21
35.940317952948284
  0
LINE
  8
_0-0_
  6
CONTINUOUS
 62
    7
 10
71.470486557188849
 20
35.940317952948284
 11
75.470486557188849
 21
35.940317952948284
  0
LINE
  8
_0-0_
  6
CONTINUOUS
 62
    7
 10
67.470486557188849
 20
32.940317952948284
 11
67.470486557188849
 21
35.940317952948284
  0
LINE
  8
_0-0_
  6
CONTINUOUS
 62
    7
 10
75.470486557188849
 20
35.940317952948284
 11
75.470486557188849
 21
32.940317952948284
  0
LINE
  8
_0-0_
  6
CONTINUOUS
 62
    7
 10
67.470486557188849
 20
26.615317952948281
 11
71.470486557188849
 21
26.615317952948281
  0
LINE
  8
_0-0_
  6
CONTINUOUS
 62
    7
 10
71.470486557188849
 20
26.615317952948281
 11
72.470486557188849
 21
26.615317952948281
  0
LINE
  8
_0-0_
  6
CONTINUOUS
 62
    7
 10
71.470486557188849
 20
26.615317952948281
 11
70.470486557188849
 21
26.615317952948281
  0
LINE
  8
_0-0_
  6
CONTINUOUS
 62
    7
 10
72.470486557188849
 20
26.615317952948281
 11
72.470486557188849
 21
25.115317952948281
  0
LINE
  8
_0-0_
  6
CONTINUOUS
 62
    7
 10
70.470486557188849
 20
26.615317952948281
 11
70.470486557188849
 21
25.115317952948281
  0
LINE
  8
_0-0_
  6
CONTINUOUS
 62
    7
 10
70.470486557188849
 20
25.115317952948281
 11
72.470486557188849
 21
25.115317952948281
  0
LINE
  8
_0-0_
  6
CONTINUOUS
 62
    7
 10
70.470486557188849
 20
26.615317952948281
 11
69.470486557188849
 21
26.615317952948281
  0
LINE
  8
_0-0_
  6
CONTINUOUS
 62
    7
 10
72.470486557188849
 20
26.615317952948281
 11
73.470486557188849
 21
26.615317952948281
  0
CIRCLE
  8
_0-0_
  6
CONTINUOUS
 62
    7
 10
69.470486557188849
 20
26.615317952948281
 40
1
  0
CIRCLE
  8
_0-0_
  6
CONTINUOUS
 62
    7
 10
73.470486557188849
 20
26.615317952948281
 40
1
  0
LINE
  8
_0-0_
  6
CONTINUOUS
 62
    7
 10
75.470486557188849
 20
26.615317952948281
 11
79.470486557188849
 21
26.615317952948281
  0
LINE
  8
_0-1_
  6
CONTINUOUS
 62
    7
 10
32.470486557188856
 20
26.615317952948281
 11
31.470486557188856
 21
26.615317952948281
  0
LINE
  8
_0-1_
  6
CONTINUOUS
 62
    7
 10
39.470486557188856
 20
35.940317952948284
 11
39.470486557188856
 21
26.615317952948281
  0
LINE
  8
_0-1_
  6
CONTINUOUS
 62
    7
 10
39.470486557188856
 20
26.615317952948281
 11
38.470486557188856
 21
26.615317952948281
  0
LINE
  8
_0-1_
  6
CONTINUOUS
 62
    7
 10
36.470486557188856
 20
26.615317952948281
 11
36.470486557188856
 21
25.115317952948281
  0
LINE
  8
_0-1_
  6
CONTINUOUS
 62
    7
 10
36.470486557188856
 20
25.115317952948281
 11
34.470486557188856
 21
25.115317952948281
  0
LINE
  8
_0-1_
  6
CONTINUOUS
 62
    7
 10
34.470486557188856
 20
25.115317952948281
 11
34.470486557188856
 21
26.615317952948281
  0
ARC
  8
_0-1_
  6
CONTINUOUS
 62
    7
 10
33.470486557188856
 20
26.615317952948281
 40
1
 50
0
 51
180
  0
ARC
  8
_0-1_
  6
CONTINUOUS
 62
    7
 10
37.470486557188856
 20
26.615317952948281
 40
1
 50
0
 51
180
  0
ARC
  8
_0-1_
  6
CONTINUOUS
 62
    7
 10
35.470486557188856
 20
35.940317952948284
 40
4
 50
0
 51
180
  0
LINE
  8
_0-1_
  6
CONTINUOUS
 62
    7
 10
43.470486557188856
 20
26.615317952948281
 11
43.470486557188856
 21
35.940317952948284
  0
LINE
  8
_0-1_
  6
CONTINUOUS
 62
    7
 10
44.470486557188856
 20
26.615317952948281
 11
43.470486557188856
 21
26.615317952948281
  0
LINE
  8
_0-1_
  6
CONTINUOUS
 62
    7
 10
51.470486557188856
 20
35.940317952948284
 11
51.470486557188856
 21
26.615317952948281
  0
LINE
  8
_0-1_
  6
CONTINUOUS
 62
    7
 10
51.470486557188856
 20
26.615317952948281
 11
50.470486557188856
 21
26.615317952948281
  0
LINE
  8
_0-1_
  6
CONTINUOUS
 62
    7
 10
48.470486557188856
 20
26.615317952948281
 11
48.470486557188856
 21
25.115317952948281
  0
LINE
  8
_0-1_
  6
CONTINUOUS
 62
    7
 10
48.470486557188856
 20
25.115317952948281
 11
46.470486557188856
 21
25.115317952948281
  0
LINE
  8
_0-1_
  6
CONTINUOUS
 62
    7
 10
46.470486557188856
 20
25.115317952948281
 11
46.470486557188856
 21
26.615317952948281
  0
ARC
  8
_0-1_
  6
CONTINUOUS
 62
    7
 10
45.470486557188856
 20
26.615317952948281
 40
1
 50
0
 51
180
  0
ARC
  8
_0-1_
  6
CONTINUOUS
 62
    7
 10
49.470486557188856
 20
26.615317952948281
 40
1
 50
0
 51
180
  0
ARC
  8
_0-1_
  6
CONTINUOUS
 62
    7
 10
47.470486557188856
 20
35.940317952948284
 40
4
 50
0
 51
180
  0
LINE
  8
_0-1_
  6
CONTINUOUS
 62
    7
 10
55.470486557188856
 20
26.615317952948281
 11
55.470486557188856
 21
35.940317952948284
  0
LINE
  8
_0-1_
  6
CONTINUOUS
 62
    7
 10
56.470486557188856
 20
26.615317952948281
 11
55.470486557188856
 21
26.615317952948281
  0
LINE
  8
_0-1_
  6
CONTINUOUS
 62
    7
 10
63.470486557188856
 20
35.940317952948284
 11
63.470486557188856
 21
26.615317952948281
  0
LINE
  8
_0-1_
  6
CONTINUOUS
 62
    7
 10
63.470486557188856
 20
26.615317952948281
 11
62.470486557188856
 21
26.615317952948281
  0
LINE
  8
_0-1_
  6
CONTINUOUS
 62
    7
 10
60.470486557188856
 20
26.615317952948281
 11
60.470486557188856
 21
25.115317952948281
  0
LINE
  8
_0-1_
  6
CONTINUOUS
 62
    7
 10
60.470486557188856
 20
25.115317952948281
 11
58.470486557188856
 21
25.115317952948281
  0
LINE
  8
_0-1_
  6
CONTINUOUS
 62
    7
 10
58.470486557188856
 20
25.115317952948281
 11
58.470486557188856
 21
26.615317952948281
  0
ARC
  8
_0-1_
  6
CONTINUOUS
 62
    7
 10
57.470486557188856
 20
26.615317952948281
 40
1
 50
0
 51
180
  0
ARC
  8
_0-1_
  6
CONTINUOUS
 62
    7
 10
61.470486557188856
 20
26.615317952948281
 40
1
 50
0
 51
180
  0
ARC
  8
_0-1_
  6
CONTINUOUS
 62
    7
 10
59.470486557188856
 20
35.940317952948284
 40
4
 50
0
 51
180
  0
LINE
  8
_0-1_
  6
CONTINUOUS
 62
    7
 10
67.470486557188849
 20
26.615317952948281
 11
67.470486557188849
 21
35.940317952948284
  0
LINE
  8
_0-1_
  6
CONTINUOUS
 62
    7
 10
68.470486557188849
 20
26.615317952948281
 11
67.470486557188849
 21
26.615317952948281
  0
LINE
  8
_0-1_
  6
CONTINUOUS
 62
    7
 10
75.470486557188849
 20
35.940317952948284
 11
75.470486557188849
 21
26.615317952948281
  0
LINE
  8
_0-1_
  6
CONTINUOUS
 62
    7
 10
75.470486557188849
 20
26.615317952948281
 11
74.470486557188849
 21
26.615317952948281
  0
LINE
  8
_0-1_
  6
CONTINUOUS
 62
    7
 10
72.470486557188849
 20
26.615317952948281
 11
72.470486557188849
 21
25.115317952948281
  0
LINE
  8
_0-1_
  6
CONTINUOUS
 62
    7
 10
72.470486557188849
 20
25.115317952948281
 11
70.470486557188849
 21
25.115317952948281
  0
LINE
  8
_0-1_
  6
CONTINUOUS
 62
    7
 10
70.470486557188849
 20
25.115317952948281
 11
70.470486557188849
 21
26.615317952948281
  0
ARC
  8
_0-1_
  6
CONTINUOUS
 62
    7
 10
69.470486557188849
 20
26.615317952948281
 40
1
 50
0
 51
180
  0
ARC
  8
_0-1_
  6
CONTINUOUS
 62
    7
 10
73.470486557188849
 20
26.615317952948281
 40
1
 50
0
 51
180
  0
ARC
  8
_0-1_
  6
CONTINUOUS
 62
    7
 10
71.470486557188849
 20
35.940317952948284
 40
4
 50
0
 51
180
  0
CIRCLE
  8
_0-2_
  6
CONTINUOUS
 62
    7
 10
35.470486557188856
 20
35.940317952948284
 40
2.5
  0
CIRCLE
  8
_0-2_
  6
CONTINUOUS
 62
    7
 10
47.470486557188856
 20
35.940317952948284
 40
2.5
  0
CIRCLE
  8
_0-2_
  6
CONTINUOUS
 62
    7
 10
59.470486557188856
 20
35.940317952948284
 40
2.5
  0
CIRCLE
  8
_0-2_
  6
CONTINUOUS
 62
    7
 10
71.470486557188849
 20
35.940317952948284
 40
2.5
  0
CIRCLE
  8
_0-2_
  6
CONTINUOUS
 62
    7
 10
35.470486557188856
 20
30.115317952948281
 40
2.3249999999999997
  0
CIRCLE
  8
_0-2_
  6
CONTINUOUS
 62
    7
 10
47.470486557188856
 20
30.115317952948281
 40
2.3249999999999997
  0
CIRCLE
  8
_0-2_
  6
CONTINUOUS
 62
    7
 10
59.470486557188856
 20
30.115317952948281
 40
2.3249999999999997
  0
CIRCLE
  8
_0-2_
  6
CONTINUOUS
 62
    7
 10
71.470486557188849
 20
30.115317952948281
 40
2.3249999999999997
  0
LINE
  8
_0-3_
  6
CONTINUOUS
 62
    7
 10
31.470486557188856
 20
32.940317952948284
 11
29.470486557188856
 21
32.940317952948284
  0
LINE
  8
_0-3_
  6
CONTINUOUS
 62
    7
 10
75.470486557188849
 20
32.940317952948284
 11
77.470486557188849
 21
32.940317952948284
  0
LINE
  8
_0-3_
  6
CONTINUOUS
 62
    7
 10
31.470486557188856
 20
32.940317952948284
 11
75.470486557188849
 21
32.940317952948284
  0
LINE
  8
_0-3_
  6
CONTINUOUS
 62
    7
 10
77.45262516050434
 20
32.948052326451617
 11
77.45262516050434
 21
24.615317952948281
  0
LINE
  8
_0-3_
  6
CONTINUOUS
 62
    7
 10
34.470486557188856
 20
24.615317952948281
 11
77.45262516050434
 21
24.615317952948281
  0
LINE
  8
_0-3_
  6
CONTINUOUS
 62
    7
 10
34.470486557188856
 20
24.615317952948281
 11
29.470486557188856
 21
24.615317952948281
  0
LINE
  8
_0-3_
  6
CONTINUOUS
 62
    7
 10
29.470486557188856
 20
32.940317952948284
 11
29.470486557188856
 21
24.615317952948281
  0
ENDSEC
  0
EOF
